<svg width="120" height="86" viewBox="0 0 120 86" fill="none" xmlns="http://www.w3.org/2000/svg">
<path d="M115.466 0.0331065L3.77544 14.3552C2.73145 14.4889 1.7723 14.9953 1.07742 15.7798C0.382534 16.5643 -0.000488411 17.5732 4.67414e-07 18.6176V57.1988C-0.000172449 58.1298 0.349505 59.0275 0.980723 59.7165C1.61194 60.4054 2.47936 60.8361 3.41352 60.9244L46.717 65.0349C46.859 65.0482 46.9906 65.1151 47.0844 65.2218L65.1434 85.8103C65.2182 85.8953 65.3172 85.9556 65.4274 85.9832C65.5376 86.0108 65.6537 86.0043 65.7601 85.9647C65.8665 85.925 65.9581 85.8541 66.0228 85.7614C66.0875 85.6686 66.122 85.5585 66.1219 85.4458V68.1267C66.0629 68.0498 66.0204 35.5828 66.0204 35.5828C66.0204 32.7144 65.4389 31.4688 64.8979 30.6334C64.1705 29.5436 62.1398 28.3915 60.6295 28.3915C59.5182 28.3946 58.4348 28.7367 57.5261 29.3714C56.5232 30.0701 55.7849 31.0818 55.429 32.2453C55.0006 33.5073 54.7865 35.5008 54.7865 38.2257V51.6522C54.7865 51.7136 54.7744 51.7744 54.7508 51.8311C54.7271 51.8878 54.6924 51.9393 54.6487 51.9827C54.605 52.0261 54.553 52.0605 54.4959 52.084C54.4387 52.1074 54.3775 52.1195 54.3156 52.1194H47.4C47.3381 52.1195 47.2769 52.1074 47.2197 52.084C47.1626 52.0605 47.1106 52.0261 47.0669 51.9827C47.0232 51.9393 46.9885 51.8878 46.9648 51.8311C46.9412 51.7744 46.9291 51.7136 46.9291 51.6522V36.2643C46.9291 33.4489 46.7894 31.6324 46.5101 30.8149C46.2907 30.0816 45.8339 29.4404 45.2105 28.9904C44.6234 28.5911 43.8265 28.3915 42.8196 28.3915C41.6576 28.3765 40.5178 28.7084 39.5482 29.344C38.5616 30.0027 37.8273 30.9719 37.4638 32.0953C37.0447 33.2951 36.8355 35.2844 36.8362 38.0631V51.6525C36.8359 51.7766 36.786 51.8955 36.6974 51.9831C36.6088 52.0707 36.4887 52.1198 36.3636 52.1196H29.4497C29.3878 52.1197 29.3266 52.1077 29.2694 52.0842C29.2122 52.0608 29.1603 52.0263 29.1166 51.9829C29.0728 51.9396 29.0382 51.888 29.0145 51.8313C28.9909 51.7746 28.9787 51.7138 28.9788 51.6525V23.6548C28.9787 23.5934 28.9909 23.5326 29.0145 23.4759C29.0382 23.4192 29.0728 23.3677 29.1166 23.3243C29.1603 23.2809 29.2122 23.2465 29.2694 23.223C29.3266 23.1996 29.3878 23.1875 29.4497 23.1876H35.7487C35.8106 23.1875 35.8718 23.1996 35.929 23.223C35.9862 23.2465 36.0381 23.2809 36.0818 23.3243C36.1256 23.3677 36.1602 23.4192 36.1839 23.4759C36.2075 23.5326 36.2197 23.5934 36.2196 23.6548V25.9224C36.22 26.0159 36.2486 26.1071 36.3018 26.1843C36.3549 26.2615 36.4302 26.3211 36.5178 26.3554C36.6055 26.3897 36.7015 26.3971 36.7934 26.3768C36.8854 26.3564 36.9691 26.3091 37.0337 26.241C39.4497 23.7701 42.2632 22.5344 45.4742 22.5337C47.3758 22.5337 49.0257 22.9153 50.4238 23.6786C51.6928 24.3839 52.7641 25.3926 53.5404 26.613C53.5804 26.6722 53.6336 26.7216 53.6959 26.7572C53.7582 26.7928 53.8279 26.8137 53.8996 26.8183C53.9713 26.8229 54.0432 26.8111 54.1096 26.7837C54.176 26.7564 54.2351 26.7143 54.2825 26.6606C55.3543 25.4428 56.6436 24.4319 58.0855 23.6786C59.5822 22.9182 61.241 22.5255 62.9225 22.5337C65.1028 22.5337 66.9483 22.9654 68.459 23.8286C69.9731 24.696 71.1606 26.0298 71.8411 27.6276C72.3821 28.864 72.6522 30.8617 72.6516 33.6209V67.3628L115.438 71.8652C116.013 71.9255 116.595 71.8652 117.145 71.6882C117.695 71.5112 118.202 71.2214 118.632 70.8377C119.062 70.454 119.406 69.9848 119.642 69.4607C119.878 68.9365 120 68.3691 120 67.7952V3.9876C120 3.42071 119.879 2.86031 119.643 2.34378C119.408 1.82725 119.064 1.36648 118.635 0.992216C118.206 0.617956 117.701 0.338816 117.155 0.173425C116.608 0.00803437 116.032 -0.0398027 115.466 0.0331065ZM19.9994 51.8008C19.9996 51.8928 19.9815 51.984 19.9462 52.069C19.9108 52.1541 19.8589 52.2314 19.7935 52.2966C19.728 52.3617 19.6502 52.4134 19.5645 52.4487C19.4789 52.484 19.3871 52.5022 19.2943 52.5023H14.2154C14.1227 52.5022 14.0309 52.484 13.9452 52.4487C13.8596 52.4134 13.7818 52.3617 13.7163 52.2966C13.6508 52.2314 13.5989 52.1541 13.5636 52.069C13.5282 51.984 13.5101 51.8928 13.5103 51.8008V24.0448C13.5101 23.9528 13.5282 23.8617 13.5636 23.7766C13.5989 23.6915 13.6508 23.6142 13.7163 23.5491C13.7818 23.4839 13.8596 23.4322 13.9452 23.3969C14.0309 23.3616 14.1227 23.3434 14.2154 23.3433H19.2941C19.3868 23.3434 19.4786 23.3616 19.5643 23.3969C19.6499 23.4322 19.7277 23.4839 19.7932 23.5491C19.8587 23.6142 19.9106 23.6915 19.9459 23.7766C19.9813 23.8617 19.9994 23.9528 19.9992 24.0448L19.9994 51.8008ZM107.252 51.5151C107.252 51.7108 107.174 51.8986 107.034 52.037C106.895 52.1755 106.706 52.2532 106.508 52.2532H100.835C100.638 52.2532 100.448 52.1755 100.309 52.037C100.169 51.8986 100.091 51.7108 100.091 51.5151V49.9763C100.091 49.8298 100.047 49.6867 99.9647 49.5651C99.8823 49.4435 99.7653 49.3491 99.6286 49.2938C99.4919 49.2386 99.3416 49.225 99.1971 49.2549C99.0525 49.2847 98.9202 49.3567 98.8171 49.4615C97.9665 50.3138 96.9843 51.0262 95.9076 51.5717C94.2196 52.4521 92.3406 52.9104 90.4337 52.9071C88.5963 52.9365 86.7823 52.4955 85.1666 51.6267C83.6689 50.8369 82.4809 49.5724 81.7918 48.0347C81.0958 46.4924 80.7481 44.3597 80.7487 41.6366V24.0815C80.7487 23.9846 80.768 23.8886 80.8054 23.799C80.8427 23.7095 80.8975 23.6281 80.9666 23.5595C81.0357 23.491 81.1177 23.4366 81.208 23.3995C81.2983 23.3624 81.395 23.3433 81.4927 23.3433H87.7142C87.9116 23.3433 88.1008 23.4211 88.2403 23.5595C88.3799 23.698 88.4582 23.8857 88.4582 24.0815V36.6286C88.4582 40.6926 88.5998 43.1831 88.8828 44.1002C89.1395 44.9779 89.6856 45.7448 90.4337 46.278C91.1833 46.8129 92.1346 47.0803 93.2878 47.0803C94.5516 47.0969 95.789 46.721 96.8268 46.0052C97.8087 45.3656 98.5585 44.431 98.9664 43.3382C99.3504 42.2758 99.5424 39.676 99.5424 35.5387V24.0815C99.5424 23.8857 99.6208 23.698 99.7603 23.5595C99.8998 23.4211 100.089 23.3433 100.286 23.3433H106.508C106.706 23.3433 106.895 23.4211 107.034 23.5595C107.174 23.698 107.252 23.8857 107.252 24.0815V51.5151Z" fill="#3691FF"/>
</svg>
